<svg xmlns="http://www.w3.org/2000/svg" width="256" height="256" viewBox="0 0 28 28" fill="none">
  <!-- Modern Fluent-style full Wi‑Fi (3 bars + center dot), padded viewBox -->
  <path fill="#FFFFFF" d="M21.4149 11.493C22.1106 12.1888 22.7114 13.0304 23.1691 13.9253C23.4625 14.499 23.2352 15.2019 22.6615 15.4953C22.0878 15.7887 21.3849 15.5614 21.0915 14.9877C20.7419 14.3039 20.283 13.6609 19.7649 13.1429C16.9729 10.3508 12.4449 10.3508 9.65289 13.1429C9.11039 13.6854 8.66989 14.2949 8.33069 14.9655C8.03989 15.5404 7.33789 15.7707 6.76299 15.4799C6.18809 15.1891 5.95779 14.4871 6.24859 13.9122C6.69899 13.0217 7.28509 12.2106 8.00309 11.4926C11.7071 7.7886 17.7111 7.7886 21.4149 11.493Z"/>
  <path fill="#FFFFFF" d="M19.0241 14.9831C19.5618 15.5208 20.0024 16.1787 20.3092 16.8787C20.5678 17.4686 20.299 18.1565 19.7091 18.4152C19.1192 18.6738 18.4314 18.405 18.1727 17.8151C17.9799 17.3747 17.7012 16.9598 17.3745 16.6331C15.9017 15.1602 13.5137 15.1602 12.0409 16.6331C11.7163 16.9577 11.4514 17.355 11.2567 17.7999C10.9984 18.3902 10.3105 18.6594 9.72025 18.401C9.12995 18.1427 8.86075 17.4549 9.11905 16.8646C9.42715 16.1606 9.85425 15.5199 10.3911 14.9831C12.7751 12.5991 16.6401 12.5991 19.0241 14.9831Z"/>
  <path fill="#FFFFFF" d="M24.4891 8.68171C25.0818 9.27438 25.6406 9.95041 26.1269 10.6552C26.493 11.1855 26.3597 11.9121 25.8294 12.2781C25.2991 12.6441 24.5725 12.5108 24.2065 11.9805C23.7983 11.3894 23.3294 10.8222 22.8393 10.3316C18.3216 5.81394 10.9969 5.81394 6.47922 10.3316C6.01352 10.7973 5.54938 11.3649 5.12535 11.9761C4.75809 12.5055 4.03118 12.6369 3.50179 12.2697C2.9724 11.9024 2.84097 11.1755 3.20823 10.6461C3.70754 9.92629 4.25879 9.25223 4.82931 8.68171C10.2582 3.25279 19.0602 3.25279 24.4891 8.68171Z"/>
  <path fill="#FFFFFF" d="M15.5718 18.1814C16.2558 18.8654 16.2558 19.9741 15.5718 20.6581C14.8878 21.3421 13.7791 21.3421 13.0951 20.6581C12.4111 19.9741 12.4111 18.8654 13.0951 18.1814C13.7791 17.4974 14.8878 17.4974 15.5718 18.1814Z"/>
</svg>
