<svg height="436" width="2500" xmlns="http://www.w3.org/2000/svg" viewBox="-0.02647235852259122 -0.06869496141099773 1206.4788767901948 211.88471620401134"><path d="M354.33 0H296.35v210.435h98.56v-39.702h-40.578zM462.817 0h-57.982v210.435h98.561v-39.702h-40.579zM113.228 2.385A8.09 8.09 0 0 0 107.252 0H29.068a8.063 8.063 0 0 0-5.976 2.385C17.684 8.137 8.958 18.048 1.676 27.434A8.755 8.755 0 0 0 0 32.674v145.074a8.65 8.65 0 0 0 1.676 5.24c7.282 9.392 16.008 19.296 21.402 25.055a8.09 8.09 0 0 0 5.976 2.385h78.184a8.063 8.063 0 0 0 5.976-2.385c5.394-5.752 14.12-15.663 21.401-25.056a8.755 8.755 0 0 0 1.677-5.24v-58.269H83.346v55.899H52.953V35.059h30.393v55.898h52.946V32.695a8.65 8.65 0 0 0-1.677-5.24c-7.28-9.393-16.007-19.297-21.4-25.049h.006v-.021zM261.55 2.385A8.09 8.09 0 0 0 255.574 0H177.39a8.063 8.063 0 0 0-5.976 2.385c-5.395 5.752-14.12 15.663-21.402 25.049a8.755 8.755 0 0 0-1.676 5.24v177.754h52.945v-61.994h30.394v61.994h52.946V32.681a8.65 8.65 0 0 0-1.677-5.24c-7.28-9.393-16.007-19.297-21.401-25.049h.007zm-60.262 111.06V35.06h30.394v78.387zM869.96 175.377h-30.394V0h-52.945v177.755a8.65 8.65 0 0 0 1.676 5.24c7.282 9.392 16.008 19.296 21.402 25.055a8.09 8.09 0 0 0 5.976 2.385h78.184a8.077 8.077 0 0 0 5.98-2.385c5.392-5.752 14.116-15.663 21.394-25.056a8.704 8.704 0 0 0 1.683-5.24V0h-52.949v175.377zM751.36 2.385A8.09 8.09 0 0 0 745.382 0H638.166v210.435h107.217a8.063 8.063 0 0 0 5.976-2.385c5.394-5.752 14.12-15.663 21.401-25.056a8.755 8.755 0 0 0 1.677-5.24V32.695a8.65 8.65 0 0 0-1.677-5.24c-7.28-9.392-16.007-19.296-21.4-25.048zm-29.869 121.59v51.402h-30.373V35.059h30.373zM1139.42 0h49.504v91.743a7.666 7.666 0 0 1-1.771 4.917l-34.722 41.968v71.807h-57.028v-71.807l-34.616-41.968a7.666 7.666 0 0 1-1.772-4.917V0h49.4v78.219l12.872 15.27h5.34l12.792-15.27z"/><path d="M543.175 43.048a3.596 3.596 0 0 0-2.665-1.066h-39.583a3.585 3.585 0 0 0-2.665 1.066c-2.413 2.567-4.377 5.072-7.64 9.266a3.916 3.916 0 0 0-.75 2.336v65.663a3.9 3.9 0 0 0 .75 2.336c3.256 4.194 5.227 6.699 7.64 9.266a3.596 3.596 0 0 0 2.665 1.066h39.583a3.585 3.585 0 0 0 2.665-1.066c2.413-2.567 4.378-5.072 7.64-9.266a3.916 3.916 0 0 0 .75-2.336V54.65a3.9 3.9 0 0 0-.75-2.336c-3.248-4.194-5.227-6.699-7.64-9.266zm-15.263 53.703v16.596h-14.4V61.594h14.4zM561.645 63.117v69.864h23.653v-30.036h25.329V81.81h-25.33V63.117h28.592V41.982h-52.244zM1048.678 0H934.254v43.09h30.74v167.345h52.943V43.09h30.74zM1188.924 175.377a17.53 17.53 0 1 0 17.528 17.529 17.53 17.53 0 0 0-17.528-17.53zm0 32.358a14.829 14.829 0 1 1 14.827-14.829 14.825 14.825 0 0 1-14.827 14.829z"/><path d="M1194.062 194.323a1.393 1.393 0 0 0-.86-.463l.018-.533h1.044a2.77 2.77 0 0 0 2.052-.73 2.67 2.67 0 0 0 .727-1.964v-3.22a2.946 2.946 0 0 0-.841-2.251 3.233 3.233 0 0 0-2.341-.793h-12.53v16.555h3.051v-6.643h6.243l3.043 6.643h3.709l-2.56-5.367a4.481 4.481 0 0 0-.755-1.234zm-9.689-2.476v-5.03h9.163a.453.453 0 0 1 .325.113.422.422 0 0 1 .114.33v4.152a.374.374 0 0 1-.439.442v-.007z"/></svg>